# Blender 3.4.1
# www.blender.org
mtllib LeverBase_02.mtl
o Cylinder.003
v 0.000000 1.000000 -0.500000
v 0.000000 1.000000 0.500000
v 0.195090 0.980785 -0.500000
v 0.195090 0.980785 0.500000
v 0.382683 0.923880 -0.500000
v 0.382683 0.923880 0.500000
v 0.555570 0.831470 -0.500000
v 0.555570 0.831470 0.500000
v 0.707107 0.707107 -0.500000
v 0.707107 0.707107 0.500000
v 0.831470 0.555570 -0.500000
v 0.831470 0.555570 0.500000
v 0.932915 0.352897 -0.500000
v 0.932915 0.352897 0.500000
v 0.980785 0.195090 -0.500000
v 0.980785 0.195090 0.500000
v 1.000000 0.000000 -0.500000
v 1.000000 -0.000000 0.500000
v -0.831470 0.555570 -0.250000
v -0.923880 0.382683 -0.250000
v -0.980785 0.195090 -0.250000
v -1.000000 0.000000 -0.250000
v 0.000000 1.000000 -0.250000
v 1.000000 0.000000 -0.250000
v 0.980785 0.195090 -0.250000
v 0.932915 0.352897 -0.250000
v 0.831470 0.555570 -0.250000
v 0.707107 0.707107 -0.250000
v 0.555570 0.831470 -0.250000
v 0.382683 0.923880 -0.250000
v 0.195090 0.980785 -0.250000
v -0.456091 0.380556 -0.164352
v -0.923776 0.382627 0.000000
v -0.980785 0.195090 0.000000
v -1.000000 0.000000 0.000000
v 1.000000 0.000000 0.000000
v 0.980785 0.195090 0.000000
v 0.932915 0.352897 0.000000
v -1.000000 0.000000 -0.500000
v -1.000000 -0.000000 0.500000
v -0.980785 0.195090 -0.500000
v -0.980785 0.195090 0.500000
v -0.923880 0.382683 -0.500000
v -0.923880 0.382683 0.500000
v -0.831470 0.555570 -0.500000
v -0.831470 0.555570 0.500000
v -0.707107 0.707107 -0.500000
v -0.707107 0.707107 0.500000
v -0.555570 0.831470 -0.500000
v -0.555570 0.831470 0.500000
v -0.382683 0.923880 -0.500000
v -0.382683 0.923880 0.500000
v -0.195090 0.980785 -0.500000
v -0.195090 0.980785 0.500000
v -0.707107 0.707107 -0.250000
v -0.555570 0.831470 -0.250000
v -0.382683 0.923880 -0.250000
v -0.195090 0.980785 -0.250000
v 0.000000 1.000000 0.250000
v -0.195090 0.980785 0.250000
v -0.382683 0.923880 0.250000
v -0.555570 0.831470 0.250000
v -0.707107 0.707107 0.250000
v -0.831470 0.555570 0.250000
v -0.923880 0.382683 0.250000
v -0.980785 0.195090 0.250000
v -1.000000 -0.000000 0.250000
v 1.000000 -0.000000 0.250000
v 0.980785 0.195090 0.250000
v 0.932915 0.352897 0.250000
v 0.831470 0.555570 0.250000
v 0.707107 0.707107 0.250000
v 0.555570 0.831470 0.250000
v 0.382683 0.923880 0.250000
v 0.195090 0.980785 0.250000
v 0.000000 1.000000 0.375000
v -0.195090 0.980785 0.375000
v -0.382683 0.923880 0.375000
v -0.555570 0.831470 0.375000
v -0.707107 0.707107 0.375000
v -0.831470 0.555570 0.375000
v -0.923880 0.382683 0.375000
v -0.980785 0.195090 0.375000
v -1.000000 -0.000000 0.375000
v 1.000000 -0.000000 0.375000
v 0.980785 0.195090 0.375000
v 0.932915 0.352897 0.375000
v 0.831470 0.555570 0.375000
v 0.707107 0.707107 0.375000
v 0.555570 0.831470 0.375000
v 0.382683 0.923880 0.375000
v 0.195090 0.980785 0.375000
v -0.122920 0.617962 0.160630
v -0.241094 0.582118 0.160630
v -0.351927 0.522647 0.160691
v -0.557663 0.234551 0.162073
v -0.631338 0.769288 -0.500000
v -0.923964 0.382729 0.156027
v -0.980785 0.195090 0.156027
v -1.000000 -0.000000 0.156027
v 1.000000 -0.000000 0.156027
v 0.980785 0.195090 0.156027
v 0.932915 0.352897 0.156027
v 0.618451 0.239704 0.160441
v 0.361732 0.516670 0.160676
v 0.241007 0.582153 0.160630
v 0.122920 0.617962 0.160630
v -0.000000 0.630069 0.160630
v -0.560294 0.238558 -0.166034
v -0.631338 0.769288 -0.250000
v -0.924003 0.382751 -0.157841
v -0.980785 0.195090 -0.157841
v -1.000000 0.000000 -0.157841
v 1.000000 0.000000 -0.157841
v 0.980785 0.195090 -0.157841
v 0.932915 0.352897 -0.157841
v 0.618780 0.238782 -0.162254
v 0.361759 0.516535 -0.162684
v 0.240970 0.582061 -0.162722
v -0.000000 0.629969 -0.162722
v 0.122901 0.617864 -0.162722
v -0.351887 0.522553 -0.162670
v -0.241058 0.582024 -0.162722
v -0.122901 0.617864 -0.162722
v 0.195090 0.980785 -0.375000
v 0.382683 0.923880 -0.375000
v 0.555570 0.831470 -0.375000
v 0.707107 0.707107 -0.375000
v 0.831470 0.555570 -0.375000
v 0.932915 0.352897 -0.375000
v 0.980785 0.195090 -0.375000
v 1.000000 0.000000 -0.375000
v 0.000000 1.000000 -0.375000
v -1.000000 0.000000 -0.375000
v -0.980785 0.195090 -0.375000
v -0.923880 0.382683 -0.375000
v -0.831470 0.555570 -0.375000
v -0.707107 0.707107 -0.375000
v -0.555570 0.831470 -0.375000
v -0.382683 0.923880 -0.375000
v -0.195090 0.980785 -0.375000
v -0.990393 0.097545 -0.250000
v -0.990393 0.097545 0.500000
v -0.990393 0.097545 -0.500000
v -0.990393 0.097545 0.000000
v -0.990393 0.097545 0.250000
v -0.990393 0.097545 0.375000
v -0.990393 0.097545 0.156027
v -0.990393 0.097545 -0.157841
v -0.990393 0.097545 -0.375000
v 0.990393 0.097545 -0.500000
v 0.990393 0.097545 0.500000
v 0.990393 0.097545 0.000000
v 0.990393 0.097545 -0.250000
v 0.990393 0.097545 0.250000
v 0.990393 0.097545 0.375000
v 0.990393 0.097545 0.156027
v 0.990393 0.097545 -0.157841
v 0.990393 0.097545 -0.375000
v 0.631338 0.769288 0.500000
v 0.631338 0.769288 0.250000
v 0.631338 0.769288 0.375000
v 0.490092 0.378187 0.160559
v 0.631338 0.769288 -0.500000
v 0.631338 0.769288 -0.250000
v 0.490269 0.377659 -0.162469
v 0.631338 0.769288 -0.375000
v -0.631338 0.769288 -0.375000
v -0.631338 0.769288 0.500000
v -0.631338 0.769288 0.250000
v -0.631338 0.769288 0.375000
v -0.454795 0.378599 0.161382
vn 0.0980 0.9952 -0.0000
vn 0.2903 0.9569 -0.0000
vn 0.4714 0.8819 -0.0000
vn 0.6344 0.7730 -0.0000
vn 0.7730 0.6344 -0.0000
vn 0.9569 0.2903 -0.0000
vn 0.9952 0.0980 -0.0000
vn -0.9952 0.0980 -0.0000
vn -0.9570 0.2902 0.0008
vn -0.6344 0.7730 -0.0000
vn -0.1632 0.1381 -0.9769
vn -0.9569 0.2903 -0.0000
vn -0.8819 0.4714 -0.0000
vn -0.7730 0.6344 -0.0000
vn -0.4714 0.8819 -0.0000
vn -0.0000 -0.0000 1.0000
vn -0.2903 0.9569 -0.0000
vn -0.0980 0.9952 -0.0000
vn -0.0000 -0.0000 -1.0000
vn 0.8942 0.4476 -0.0000
vn -0.0231 0.2348 -0.9718
vn -0.0685 0.2257 -0.9718
vn -0.1114 0.2078 -0.9718
vn -0.1778 0.1507 -0.9725
vn 0.3685 0.9296 -0.0002
vn -0.1863 0.0996 0.9774
vn -0.9570 0.2901 0.0005
vn 0.2285 0.1144 0.9668
vn 0.1576 0.1609 -0.9743
vn 0.1117 0.2074 -0.9719
vn 0.0685 0.2258 -0.9718
vn 0.0231 0.2348 -0.9718
vn -0.9569 0.2903 -0.0007
vn -0.3401 0.9404 -0.0015
vn -0.0226 0.2295 0.9730
vn -0.0669 0.2207 0.9730
vn -0.1087 0.2034 0.9730
vn -0.1751 0.1463 0.9736
vn -0.1548 0.1271 0.9797
vn -0.1926 0.1030 -0.9759
vn -0.9570 0.2899 -0.0007
vn 0.1805 0.1481 0.9724
vn 0.1542 0.1577 0.9754
vn 0.1090 0.2030 0.9731
vn 0.0669 0.2207 0.9730
vn 0.0226 0.2295 0.9730
vn 0.4768 0.8790 -0.0003
vn 0.2902 0.9570 -0.0003
vn -0.0980 0.9952 -0.0003
vn -0.2903 0.9569 -0.0003
vn 0.0980 0.9952 -0.0003
vn -0.4728 0.8812 -0.0003
vn -0.8100 0.5864 0.0033
vn -0.1601 0.1314 -0.9783
vn 0.1842 0.1512 -0.9712
vn -0.0000 -1.0000 -0.0000
vn 0.2330 0.1166 -0.9655
vn -0.3387 0.9409 -0.0000
vn -0.3414 0.9399 -0.0000
vn 0.7337 0.6795 -0.0005
vn 0.1646 0.1680 -0.9719
vn 0.1609 0.1645 0.9732
vn 0.7337 0.6795 -0.0010
vn 0.3750 0.9270 0.0001
vn -0.1603 0.1333 0.9780
vn -0.8100 0.5863 0.0102
vn 0.3718 0.9283 0.0043
vt 0.750000 0.490000
vt 1.000000 0.500000
vt 0.000000 0.500000
vt 1.000000 1.000000
vt 0.250000 0.490000
vt 0.000000 1.000000
vt 0.796822 0.485388
vt 0.968750 0.500000
vt 0.968750 1.000000
vt 0.296822 0.485388
vt 0.841844 0.471731
vt 0.937500 0.500000
vt 0.937500 1.000000
vt 0.341844 0.471731
vt 0.883337 0.449553
vt 0.906250 0.500000
vt 0.383337 0.449553
vt 0.906250 1.000000
vt 0.919706 0.419706
vt 0.875000 0.500000
vt 0.875000 1.000000
vt 0.419706 0.419706
vt 0.949553 0.383337
vt 0.843750 0.500000
vt 0.449553 0.383337
vt 0.843750 1.000000
vt 0.973900 0.334695
vt 0.807538 0.500000
vt 0.473900 0.334695
vt 0.807538 1.000000
vt 0.985388 0.296822
vt 0.781250 0.500000
vt 0.485388 0.296822
vt 0.781250 1.000000
vt 0.990000 0.250000
vt 0.750000 0.500000
vt 0.000000 0.000000
vt 0.750000 1.000000
vt 0.490000 0.250000
vt 0.000000 0.000000
vt 0.156250 0.625000
vt 0.187500 0.625000
vt 0.218750 0.625000
vt 0.250000 0.625000
vt 0.000000 0.000000
vt 0.000000 0.625000
vt 1.000000 0.625000
vt 0.750000 0.625000
vt 0.000000 0.000000
vt 0.781250 0.625000
vt 0.807538 0.625000
vt 0.843750 0.625000
vt 0.875000 0.625000
vt 0.906250 0.625000
vt 0.937500 0.625000
vt 0.968750 0.625000
vt 0.108371 0.670558
vt 0.000000 0.000000
vt 0.187500 0.750000
vt 0.218750 0.750000
vt 0.250000 0.750000
vt 0.000000 0.000000
vt 0.750000 0.750000
vt 0.000000 0.000000
vt 0.781250 0.750000
vt 0.807538 0.750000
vt 0.510000 0.250000
vt 0.250000 0.500000
vt 0.000000 0.000000
vt 0.010000 0.250000
vt 0.250000 1.000000
vt 0.000000 0.000000
vt 0.514612 0.296822
vt 0.218750 0.500000
vt 0.218750 1.000000
vt 0.014612 0.296822
vt 0.528269 0.341844
vt 0.187500 0.500000
vt 0.187500 1.000000
vt 0.028269 0.341844
vt 0.550447 0.383337
vt 0.156250 0.500000
vt 0.156250 1.000000
vt 0.050447 0.383337
vt 0.580294 0.419706
vt 0.125000 0.500000
vt 0.080294 0.419706
vt 0.125000 1.000000
vt 0.616663 0.449553
vt 0.093750 0.500000
vt 0.093750 1.000000
vt 0.116663 0.449553
vt 0.658156 0.471731
vt 0.062500 0.500000
vt 0.158156 0.471731
vt 0.062500 1.000000
vt 0.703178 0.485388
vt 0.031250 0.500000
vt 0.203178 0.485388
vt 0.031250 1.000000
vt 0.125000 0.625000
vt 0.093750 0.625000
vt 0.062500 0.625000
vt 0.031250 0.625000
vt 0.000000 0.875000
vt 1.000000 0.875000
vt 0.031250 0.875000
vt 0.062500 0.875000
vt 0.093750 0.875000
vt 0.125000 0.875000
vt 0.156250 0.875000
vt 0.187500 0.875000
vt 0.218750 0.875000
vt 0.250000 0.875000
vt 0.000000 0.000000
vt 0.750000 0.875000
vt 0.000000 0.000000
vt 0.781250 0.875000
vt 0.807538 0.875000
vt 0.843750 0.875000
vt 0.875000 0.875000
vt 0.906250 0.875000
vt 0.937500 0.875000
vt 0.968750 0.875000
vt 0.000000 0.937500
vt 1.000000 0.937500
vt 0.031250 0.937500
vt 0.062500 0.937500
vt 0.093750 0.937500
vt 0.125000 0.937500
vt 0.156250 0.937500
vt 0.187500 0.937500
vt 0.218750 0.937500
vt 0.250000 0.937500
vt 0.000000 0.000000
vt 0.750000 0.937500
vt 0.000000 0.000000
vt 0.781250 0.937500
vt 0.807538 0.937500
vt 0.843750 0.937500
vt 0.875000 0.937500
vt 0.906250 0.937500
vt 0.937500 0.937500
vt 0.968750 0.937500
vt 0.031250 0.828866
vt 0.000000 0.000000
vt 0.062500 0.828866
vt 0.000000 0.000000
vt 0.093750 0.828866
vt 0.000000 0.000000
vt 0.000000 0.000000
vt 0.122970 0.828014
vt 0.598479 0.434629
vt 0.109375 0.500000
vt 0.187500 0.828014
vt 0.218750 0.828014
vt 0.250000 0.828014
vt 0.000000 0.000000
vt 0.750000 0.828014
vt 0.000000 0.000000
vt 0.781250 0.828014
vt 0.807538 0.828014
vt 0.871173 0.828866
vt 0.000000 0.000000
vt 0.000000 0.000000
vt 0.906250 0.828866
vt 0.937500 0.828866
vt 0.000000 0.000000
vt 0.968750 0.828866
vt 0.000000 0.000000
vt 0.000000 0.828866
vt 1.000000 0.828866
vt 0.000000 0.000000
vt 0.000000 0.000000
vt 0.122993 0.670558
vt 0.109375 0.625000
vt 0.187500 0.671080
vt 0.218750 0.671080
vt 0.250000 0.671080
vt 0.000000 0.000000
vt 0.750000 0.671080
vt 0.000000 0.000000
vt 0.781250 0.671080
vt 0.807538 0.671080
vt 0.871146 0.670558
vt 0.000000 0.000000
vt 0.000000 0.000000
vt 0.906250 0.670558
vt 0.937500 0.670558
vt 0.000000 0.000000
vt 0.000000 0.670558
vt 1.000000 0.670558
vt 0.000000 0.000000
vt 0.968750 0.670558
vt 0.000000 0.000000
vt 0.093750 0.670558
vt 0.000000 0.000000
vt 0.062500 0.670557
vt 0.000000 0.000000
vt 0.031250 0.670558
vt 0.000000 0.000000
vt 0.968750 0.562500
vt 0.937500 0.562500
vt 0.906250 0.562500
vt 0.875000 0.562500
vt 0.843750 0.562500
vt 0.807538 0.562500
vt 0.781250 0.562500
vt 0.750000 0.562500
vt 0.000000 0.000000
vt 1.000000 0.562500
vt 0.000000 0.562500
vt 0.250000 0.562500
vt 0.000000 0.000000
vt 0.218750 0.562500
vt 0.187500 0.562500
vt 0.156250 0.562500
vt 0.125000 0.562500
vt 0.093750 0.562500
vt 0.062500 0.562500
vt 0.031250 0.562500
vt 0.234375 0.625000
vt 0.012306 0.273411
vt 0.234375 1.000000
vt 0.512306 0.273411
vt 0.234375 0.500000
vt 0.234375 0.750000
vt 0.234375 0.875000
vt 0.234375 0.937500
vt 0.234375 0.828014
vt 0.234375 0.671080
vt 0.234375 0.562500
vt 0.987694 0.273411
vt 0.765625 0.500000
vt 0.487694 0.273411
vt 0.765625 1.000000
vt 0.765625 0.750000
vt 0.765625 0.625000
vt 0.765625 0.875000
vt 0.765625 0.937500
vt 0.765625 0.828014
vt 0.765625 0.671080
vt 0.765625 0.562500
vt 0.401521 0.434629
vt 0.890625 1.000000
vt 0.890625 0.875000
vt 0.890625 0.937500
vt 0.888711 0.828866
vt 0.000000 0.000000
vt 0.901521 0.434629
vt 0.890625 0.500000
vt 0.890625 0.625000
vt 0.888698 0.670558
vt 0.000000 0.000000
vt 0.890625 0.562500
vt 0.109375 0.562500
vt 0.098479 0.434629
vt 0.109375 1.000000
vt 0.109375 0.875000
vt 0.109375 0.937500
vt 0.108360 0.828440
vt 0.000000 0.000000
s 0
f 76/126/1 2/4/1 4/9/1 92/144/1
f 92/144/2 4/9/2 6/13/2 91/143/2
f 91/143/3 6/13/3 8/18/3 90/142/3
f 162/247/4 160/245/4 10/21/4 89/141/4
f 89/141/5 10/21/5 12/26/5 88/140/5
f 87/139/6 14/30/6 16/34/6 86/138/6
f 156/240/7 152/236/7 18/38/7 85/136/7
f 116/184/6 38/66/6 37/65/6 115/183/6
f 158/242/7 153/237/7 36/63/7 114/181/7
f 149/231/8 145/227/8 34/60/8 112/178/8
f 112/178/9 34/60/9 33/59/9 111/177/9
f 63/110/10 80/130/10 171/260/10 170/259/10
f 96/152/11 63/110/11 170/259/11 172/261/11
f 147/229/8 143/224/8 42/75/8 83/133/8
f 83/133/12 42/75/12 44/79/12 82/132/12
f 82/132/13 44/79/13 46/83/13 81/131/13
f 81/131/14 46/83/14 48/88/14 80/130/14
f 171/260/10 169/258/10 50/91/10 79/129/10
f 79/129/15 50/91/15 52/96/15 78/128/15
f 4/10/16 2/5/16 54/99/16 52/95/16 50/92/16 169/257/16 48/87/16 46/84/16 44/80/16 42/76/16 143/223/16 40/70/16 18/39/16 152/235/16 16/33/16 14/29/16 12/25/16 10/22/16 160/244/16 8/17/16 6/14/16
f 78/128/17 52/96/17 54/100/17 77/127/17
f 77/127/18 54/100/18 2/6/18 76/125/18
f 1/1/19 3/7/19 5/11/19 7/15/19 164/250/19 9/19/19 11/23/19 13/27/19 15/31/19 151/233/19 17/35/19 39/67/19 144/225/19 41/73/19 43/77/19 45/81/19 47/85/19 97/153/19 49/89/19 51/93/19 53/97/19
f 35/61/8 100/157/8 148/230/8 145/227/8
f 141/221/18 58/104/18 23/46/18 133/212/18
f 113/179/8 35/61/8 145/227/8 149/231/8
f 140/220/17 57/103/17 58/104/17 141/221/17
f 139/219/15 56/102/15 57/103/15 140/220/15
f 168/256/10 110/176/10 56/102/10 139/219/10
f 137/217/14 19/41/14 55/101/14 138/218/14
f 136/216/13 20/42/13 19/41/13 137/217/13
f 135/215/12 21/43/12 20/42/12 136/216/12
f 150/232/8 142/222/8 21/43/8 135/215/8
f 159/243/7 154/238/7 24/48/7 132/209/7
f 130/207/6 26/51/6 25/50/6 131/208/6
f 71/120/20 88/140/20 87/139/20 70/119/20
f 128/205/5 28/53/5 27/52/5 129/206/5
f 167/255/4 165/252/4 28/53/4 128/205/4
f 126/203/3 30/55/3 29/54/3 127/204/3
f 125/202/2 31/56/2 30/55/2 126/203/2
f 133/211/1 23/47/1 31/56/1 125/202/1
f 84/134/8 40/71/8 143/224/8 147/229/8
f 93/145/21 60/107/21 59/105/21 108/171/21
f 94/147/22 61/108/22 60/107/22 93/145/22
f 95/149/23 62/109/23 61/108/23 94/147/23
f 172/261/24 170/259/24 62/109/24 95/149/24
f 109/175/25 20/42/25 111/177/25
f 109/175/26 19/41/26 20/42/26
f 99/156/27 66/113/27 65/112/27 98/155/27
f 148/230/8 146/228/8 66/113/8 99/156/8
f 157/241/7 155/239/7 68/116/7 101/159/7
f 103/162/6 70/119/6 69/118/6 102/161/6
f 26/51/28 27/52/28 117/185/28
f 163/248/29 161/246/29 72/121/29 104/163/29
f 106/167/30 74/123/30 73/122/30 105/166/30
f 107/169/31 75/124/31 74/123/31 106/167/31
f 108/172/32 59/106/32 75/124/32 107/169/32
f 134/213/8 22/44/8 142/222/8 150/232/8
f 60/107/18 77/127/18 76/125/18 59/105/18
f 61/108/17 78/128/17 77/127/17 60/107/17
f 62/109/15 79/129/15 78/128/15 61/108/15
f 170/259/10 171/260/10 79/129/10 62/109/10
f 64/111/14 81/131/14 80/130/14 63/110/14
f 65/112/13 82/132/13 81/131/13 64/111/13
f 66/113/12 83/133/12 82/132/12 65/112/12
f 146/228/8 147/229/8 83/133/8 66/113/8
f 155/239/7 156/240/7 85/136/7 68/116/7
f 70/119/6 87/139/6 86/138/6 69/118/6
f 88/140/20 12/26/20 14/30/20 87/139/20
f 72/121/5 89/141/5 88/140/5 71/120/5
f 161/246/4 162/247/4 89/141/4 72/121/4
f 74/123/3 91/143/3 90/142/3 73/122/3
f 75/124/2 92/144/2 91/143/2 74/123/2
f 59/106/1 76/126/1 92/144/1 75/124/1
f 38/66/6 103/162/6 102/161/6 37/65/6
f 153/237/7 157/241/7 101/159/7 36/63/7
f 145/227/8 148/230/8 99/156/8 34/60/8
f 34/60/33 99/156/33 98/155/33 33/59/33
f 104/163/34 103/162/34 38/66/34 116/184/34 117/185/34
f 138/218/10 55/101/10 110/176/10 168/256/10
f 15/32/7 131/208/7 159/243/7 151/234/7
f 100/157/8 67/114/8 146/228/8 148/230/8
f 58/104/35 124/200/35 120/191/35 23/46/35
f 57/103/36 123/198/36 124/200/36 58/104/36
f 56/102/37 122/196/37 123/198/37 57/103/37
f 110/176/38 32/57/38 122/196/38 56/102/38
f 19/41/39 109/175/39 55/101/39
f 65/112/40 64/111/40 96/152/40
f 21/43/41 112/178/41 111/177/41 20/42/41
f 142/222/8 149/231/8 112/178/8 21/43/8
f 154/238/7 158/242/7 114/181/7 24/48/7
f 26/51/6 116/184/6 115/183/6 25/50/6
f 28/53/42 117/185/42 27/52/42
f 165/252/43 166/253/43 117/185/43 28/53/43
f 30/55/44 119/189/44 118/188/44 29/54/44
f 31/56/45 121/194/45 119/189/45 30/55/45
f 23/47/46 120/192/46 121/194/46 31/56/46
f 1/2/1 133/211/1 125/202/1 3/8/1
f 3/8/2 125/202/2 126/203/2 5/12/2
f 5/12/3 126/203/3 127/204/3 7/16/3
f 164/251/4 167/255/4 128/205/4 9/20/4
f 9/20/5 128/205/5 129/206/5 11/24/5
f 129/206/20 27/52/20 26/51/20 130/207/20
f 13/28/6 130/207/6 131/208/6 15/32/6
f 151/234/7 159/243/7 132/209/7 17/36/7
f 144/226/8 150/232/8 135/215/8 41/74/8
f 41/74/12 135/215/12 136/216/12 43/78/12
f 43/78/13 136/216/13 137/217/13 45/82/13
f 45/82/14 137/217/14 138/218/14 47/86/14
f 97/154/10 168/256/10 139/219/10 49/90/10
f 49/90/15 139/219/15 140/220/15 51/94/15
f 51/94/17 140/220/17 141/221/17 53/98/17
f 53/98/18 141/221/18 133/212/18 1/3/18
f 25/50/7 115/183/7 158/242/7 154/238/7
f 119/190/47 106/168/47 105/165/47 118/187/47
f 39/68/8 134/213/8 150/232/8 144/226/8
f 107/170/48 119/190/48 121/195/48
f 22/44/8 113/179/8 149/231/8 142/222/8
f 124/201/49 108/173/49 120/193/49
f 67/114/8 84/134/8 147/229/8 146/228/8
f 93/146/50 123/199/50 94/148/50
f 107/170/51 121/195/51 120/193/51
f 108/173/51 107/170/51 120/193/51
f 123/199/50 93/146/50 124/201/50
f 94/148/52 123/199/52 95/150/52
f 123/199/52 122/197/52 95/150/52
f 93/146/49 108/173/49 124/201/49
f 107/170/48 106/168/48 119/190/48
f 95/150/53 122/197/53 32/58/53 172/262/53
f 96/152/54 64/111/54 63/110/54
f 47/86/10 138/218/10 168/256/10 97/154/10
f 71/120/55 104/163/55 72/121/55
f 100/158/56 35/62/56 113/180/56 22/45/56 134/214/56 39/69/56 17/37/56 132/210/56 24/49/56 114/182/56 36/64/56 101/160/56 68/117/56 85/137/56 18/40/56 40/72/56 84/135/56 67/115/56
f 37/65/7 102/161/7 157/241/7 153/237/7
f 69/118/7 86/138/7 156/240/7 155/239/7
f 102/161/7 69/118/7 155/239/7 157/241/7
f 131/208/7 25/50/7 154/238/7 159/243/7
f 115/183/7 37/65/7 153/237/7 158/242/7
f 86/138/7 16/34/7 152/236/7 156/240/7
f 71/120/57 70/119/57 104/163/57
f 104/163/58 70/119/58 103/162/58
f 26/51/59 117/185/59 116/184/59
f 118/187/60 105/165/60 163/249/60 166/254/60
f 73/122/4 90/142/4 162/247/4 161/246/4
f 105/166/61 73/122/61 161/246/61 163/248/61
f 90/142/4 8/18/4 160/245/4 162/247/4
f 7/16/4 127/204/4 167/255/4 164/251/4
f 29/54/62 118/188/62 166/253/62 165/252/62
f 127/204/4 29/54/4 165/252/4 167/255/4
f 166/254/63 163/249/63 104/164/63 117/186/63
f 65/112/64 96/152/64 98/155/64
f 55/101/65 109/175/65 32/57/65 110/176/65
f 80/130/10 48/88/10 169/258/10 171/260/10
f 11/24/20 129/206/20 130/207/20 13/28/20
f 172/262/66 32/58/66 109/174/66 96/151/66
f 98/155/67 96/152/67 109/175/67 111/177/67 33/59/67
