# Blender 3.4.1
# www.blender.org
mtllib LeverBase_01.mtl
o Cylinder.002
v 0.000000 1.000000 -0.500000
v 0.000000 1.000000 0.500000
v 0.195090 0.980785 -0.500000
v 0.195090 0.980785 0.500000
v 0.382683 0.923880 -0.500000
v 0.382683 0.923880 0.500000
v 0.555570 0.831470 -0.500000
v 0.555570 0.831470 0.500000
v 0.707107 0.707107 -0.500000
v 0.707107 0.707107 0.500000
v 0.831470 0.555570 -0.500000
v 0.831470 0.555570 0.500000
v 0.923880 0.382683 -0.500000
v 0.923880 0.382683 0.500000
v 0.980785 0.195090 -0.500000
v 0.980785 0.195090 0.500000
v 1.000000 0.000000 -0.500000
v 1.000000 -0.000000 0.500000
v -0.831470 0.555570 -0.250000
v -0.923880 0.382683 -0.250000
v -0.980785 0.195090 -0.250000
v -1.000000 0.000000 -0.250000
v 0.000000 1.000000 -0.250000
v 1.000000 0.000000 -0.250000
v 0.980785 0.195090 -0.250000
v 0.923880 0.382683 -0.250000
v 0.831470 0.555570 -0.250000
v 0.707107 0.707107 -0.250000
v 0.555570 0.831470 -0.250000
v 0.382683 0.923880 -0.250000
v 0.195090 0.980785 -0.250000
v -0.827890 0.552444 0.000000
v -0.923776 0.382627 0.000000
v -0.980785 0.195090 0.000000
v -1.000000 0.000000 0.000000
v 1.000000 0.000000 0.000000
v 0.980785 0.195090 0.000000
v 0.923880 0.382683 0.000000
v 0.832437 0.556521 0.000000
v -0.488849 0.410019 -0.000274
v -1.000000 0.000000 -0.500000
v -1.000000 -0.000000 0.500000
v -0.980785 0.195090 -0.500000
v -0.980785 0.195090 0.500000
v -0.923880 0.382683 -0.500000
v -0.923880 0.382683 0.500000
v -0.831470 0.555570 -0.500000
v -0.831470 0.555570 0.500000
v -0.707107 0.707107 -0.500000
v -0.707107 0.707107 0.500000
v -0.555570 0.831470 -0.500000
v -0.555570 0.831470 0.500000
v -0.382683 0.923880 -0.500000
v -0.382683 0.923880 0.500000
v -0.195090 0.980785 -0.500000
v -0.195090 0.980785 0.500000
v -0.707107 0.707107 -0.250000
v -0.555570 0.831470 -0.250000
v -0.382683 0.923880 -0.250000
v -0.195090 0.980785 -0.250000
v 0.000000 1.000000 0.250000
v -0.195090 0.980785 0.250000
v -0.382683 0.923880 0.250000
v -0.555570 0.831470 0.250000
v -0.707107 0.707107 0.250000
v -0.831470 0.555570 0.250000
v -0.923880 0.382683 0.250000
v -0.980785 0.195090 0.250000
v -1.000000 -0.000000 0.250000
v 1.000000 -0.000000 0.250000
v 0.980785 0.195090 0.250000
v 0.923880 0.382683 0.250000
v 0.831470 0.555570 0.250000
v 0.707107 0.707107 0.250000
v 0.555570 0.831470 0.250000
v 0.382683 0.923880 0.250000
v 0.195090 0.980785 0.250000
v 0.000000 1.000000 0.375000
v -0.195090 0.980785 0.375000
v -0.382683 0.923880 0.375000
v -0.555570 0.831470 0.375000
v -0.707107 0.707107 0.375000
v -0.831470 0.555570 0.375000
v -0.923880 0.382683 0.375000
v -0.980785 0.195090 0.375000
v -1.000000 -0.000000 0.375000
v 1.000000 -0.000000 0.375000
v 0.980785 0.195090 0.375000
v 0.923880 0.382683 0.375000
v 0.831470 0.555570 0.375000
v 0.707107 0.707107 0.375000
v 0.555570 0.831470 0.375000
v 0.382683 0.923880 0.375000
v 0.195090 0.980785 0.375000
v -0.122920 0.617962 0.160630
v -0.241094 0.582118 0.160630
v -0.351927 0.522647 0.160691
v -0.484902 0.409387 0.162159
v -0.831656 0.552377 0.156009
v -0.923964 0.382729 0.156027
v -0.980785 0.195090 0.156027
v -1.000000 -0.000000 0.156027
v 1.000000 -0.000000 0.156027
v 0.980785 0.195090 0.156027
v 0.923880 0.382683 0.156027
v 0.831477 0.555785 0.156027
v 0.534077 0.413178 0.159960
v 0.361732 0.516670 0.160676
v 0.241007 0.582153 0.160630
v 0.122920 0.617962 0.160630
v -0.000000 0.630069 0.160630
v -0.488059 0.413611 -0.165665
v -0.831590 0.552777 -0.157827
v -0.924003 0.382751 -0.157841
v -0.980785 0.195090 -0.157841
v -1.000000 0.000000 -0.157841
v 1.000000 0.000000 -0.157841
v 0.980785 0.195090 -0.157841
v 0.923880 0.382683 -0.157841
v 0.831529 0.556386 -0.157839
v 0.534018 0.412068 -0.161848
v 0.361759 0.516535 -0.162684
v 0.240970 0.582061 -0.162722
v -0.000000 0.629969 -0.162722
v 0.122901 0.617864 -0.162722
v -0.351887 0.522553 -0.162670
v -0.241058 0.582024 -0.162722
v -0.122901 0.617864 -0.162722
v 0.195090 0.980785 -0.375000
v 0.382683 0.923880 -0.375000
v 0.555570 0.831470 -0.375000
v 0.707107 0.707107 -0.375000
v 0.831470 0.555570 -0.375000
v 0.923880 0.382683 -0.375000
v 0.980785 0.195090 -0.375000
v 1.000000 0.000000 -0.375000
v 0.000000 1.000000 -0.375000
v -1.000000 0.000000 -0.375000
v -0.980785 0.195090 -0.375000
v -0.923880 0.382683 -0.375000
v -0.831470 0.555570 -0.375000
v -0.707107 0.707107 -0.375000
v -0.555570 0.831470 -0.375000
v -0.382683 0.923880 -0.375000
v -0.195090 0.980785 -0.375000
v 0.529863 0.407351 -0.000348
v -0.990393 0.097545 -0.250000
v -0.990393 0.097545 0.500000
v -0.990393 0.097545 -0.500000
v -0.990393 0.097545 0.000000
v -0.990393 0.097545 0.250000
v -0.990393 0.097545 0.375000
v -0.990393 0.097545 0.156027
v -0.990393 0.097545 -0.157841
v -0.990393 0.097545 -0.375000
v 0.990393 0.097545 -0.500000
v 0.990393 0.097545 0.500000
v 0.990393 0.097545 0.000000
v 0.990393 0.097545 -0.250000
v 0.990393 0.097545 0.250000
v 0.990393 0.097545 0.375000
v 0.990393 0.097545 0.156027
v 0.990393 0.097545 -0.157841
v 0.990393 0.097545 -0.375000
vn 0.0980 0.9952 -0.0000
vn 0.2903 0.9569 -0.0000
vn 0.4714 0.8819 -0.0000
vn 0.6344 0.7730 -0.0000
vn 0.7730 0.6344 -0.0000
vn 0.8819 0.4714 -0.0000
vn 0.9569 0.2903 -0.0000
vn 0.9952 0.0980 -0.0000
vn -0.4394 0.8983 0.0084
vn 0.8840 0.4675 -0.0027
vn -0.9952 0.0980 -0.0000
vn -0.9570 0.2902 0.0008
vn -0.8746 0.4846 0.0116
vn 0.3814 0.9244 0.0078
vn -0.9569 0.2903 -0.0000
vn -0.8819 0.4714 -0.0000
vn -0.7730 0.6344 -0.0000
vn -0.6344 0.7730 -0.0000
vn -0.4714 0.8819 -0.0000
vn -0.0000 -0.0000 1.0000
vn -0.2903 0.9569 -0.0000
vn -0.0980 0.9952 -0.0000
vn -0.0000 -0.0000 -1.0000
vn -0.0231 0.2348 -0.9718
vn -0.0685 0.2257 -0.9718
vn -0.1114 0.2078 -0.9718
vn -0.1527 0.1768 -0.9723
vn 0.3815 0.9238 -0.0321
vn -0.8802 0.4746 -0.0067
vn -0.9570 0.2901 0.0005
vn 0.8821 0.4712 0.0006
vn -0.4324 0.9017 0.0020
vn 0.1396 0.2015 -0.9695
vn 0.1117 0.2074 -0.9719
vn 0.0685 0.2258 -0.9718
vn 0.0231 0.2348 -0.9718
vn 0.8836 0.4682 0.0038
vn -0.9569 0.2903 -0.0007
vn -0.8745 0.4848 -0.0111
vn 0.3842 0.9232 0.0018
vn -0.0226 0.2295 0.9730
vn -0.0669 0.2207 0.9730
vn -0.1087 0.2034 0.9730
vn -0.1498 0.1723 0.9736
vn -0.1784 0.1464 0.9730
vn -0.8803 0.4744 0.0059
vn -0.9570 0.2899 -0.0007
vn 0.8824 0.4704 -0.0024
vn 0.2047 0.1680 0.9643
vn 0.1367 0.1970 0.9708
vn 0.1090 0.2030 0.9731
vn 0.0669 0.2207 0.9730
vn 0.0226 0.2295 0.9730
vn -0.4374 0.8992 -0.0100
vn 0.5308 0.8475 -0.0016
vn 0.4768 0.8790 -0.0003
vn 0.2902 0.9570 -0.0003
vn -0.0980 0.9952 -0.0003
vn -0.2903 0.9569 -0.0003
vn 0.0980 0.9952 -0.0003
vn -0.4728 0.8812 -0.0003
vn -0.6358 0.7718 0.0080
vn -0.1829 0.1501 -0.9716
vn 0.3759 0.9262 0.0286
vn 0.2092 0.1717 -0.9627
vn -0.4363 0.8997 -0.0077
vn -0.0000 -1.0000 -0.0000
vt 0.750000 0.490000
vt 1.000000 0.500000
vt 0.000000 0.500000
vt 1.000000 1.000000
vt 0.250000 0.490000
vt 0.000000 1.000000
vt 0.796822 0.485388
vt 0.968750 0.500000
vt 0.968750 1.000000
vt 0.296822 0.485388
vt 0.841844 0.471731
vt 0.937500 0.500000
vt 0.937500 1.000000
vt 0.341844 0.471731
vt 0.883337 0.449553
vt 0.906250 0.500000
vt 0.906250 1.000000
vt 0.383337 0.449553
vt 0.919706 0.419706
vt 0.875000 0.500000
vt 0.875000 1.000000
vt 0.419706 0.419706
vt 0.949553 0.383337
vt 0.843750 0.500000
vt 0.843750 1.000000
vt 0.449553 0.383337
vt 0.971731 0.341844
vt 0.812500 0.500000
vt 0.812500 1.000000
vt 0.471731 0.341844
vt 0.985388 0.296822
vt 0.781250 0.500000
vt 0.485388 0.296822
vt 0.781250 1.000000
vt 0.990000 0.250000
vt 0.750000 0.500000
vt 0.000000 0.000000
vt 0.750000 1.000000
vt 0.490000 0.250000
vt 0.000000 0.000000
vt 0.156250 0.625000
vt 0.187500 0.625000
vt 0.218750 0.625000
vt 0.250000 0.625000
vt 0.000000 0.000000
vt 0.000000 0.625000
vt 1.000000 0.625000
vt 0.750000 0.625000
vt 0.000000 0.000000
vt 0.781250 0.625000
vt 0.812500 0.625000
vt 0.843750 0.625000
vt 0.875000 0.625000
vt 0.906250 0.625000
vt 0.937500 0.625000
vt 0.968750 0.625000
vt 0.156250 0.750000
vt 0.187500 0.750000
vt 0.218750 0.750000
vt 0.250000 0.750000
vt 0.000000 0.000000
vt 0.750000 0.750000
vt 0.000000 0.000000
vt 0.781250 0.750000
vt 0.812500 0.750000
vt 0.843750 0.750000
vt 0.127292 0.750008
vt 0.000000 0.000000
vt 0.510000 0.250000
vt 0.250000 0.500000
vt 0.000000 0.000000
vt 0.010000 0.250000
vt 0.250000 1.000000
vt 0.000000 0.000000
vt 0.514612 0.296822
vt 0.218750 0.500000
vt 0.218750 1.000000
vt 0.014612 0.296822
vt 0.528269 0.341844
vt 0.187500 0.500000
vt 0.187500 1.000000
vt 0.028269 0.341844
vt 0.550447 0.383337
vt 0.156250 0.500000
vt 0.156250 1.000000
vt 0.050447 0.383337
vt 0.580294 0.419706
vt 0.125000 0.500000
vt 0.125000 1.000000
vt 0.080294 0.419706
vt 0.616663 0.449553
vt 0.093750 0.500000
vt 0.093750 1.000000
vt 0.116663 0.449553
vt 0.658156 0.471731
vt 0.062500 0.500000
vt 0.158156 0.471731
vt 0.062500 1.000000
vt 0.703178 0.485388
vt 0.031250 0.500000
vt 0.203178 0.485388
vt 0.031250 1.000000
vt 0.125000 0.625000
vt 0.093750 0.625000
vt 0.062500 0.625000
vt 0.031250 0.625000
vt 0.000000 0.875000
vt 1.000000 0.875000
vt 0.031250 0.875000
vt 0.062500 0.875000
vt 0.093750 0.875000
vt 0.125000 0.875000
vt 0.156250 0.875000
vt 0.187500 0.875000
vt 0.218750 0.875000
vt 0.250000 0.875000
vt 0.000000 0.000000
vt 0.750000 0.875000
vt 0.000000 0.000000
vt 0.781250 0.875000
vt 0.812500 0.875000
vt 0.843750 0.875000
vt 0.875000 0.875000
vt 0.906250 0.875000
vt 0.937500 0.875000
vt 0.968750 0.875000
vt 0.000000 0.937500
vt 1.000000 0.937500
vt 0.031250 0.937500
vt 0.062500 0.937500
vt 0.093750 0.937500
vt 0.125000 0.937500
vt 0.156250 0.937500
vt 0.187500 0.937500
vt 0.218750 0.937500
vt 0.250000 0.937500
vt 0.000000 0.000000
vt 0.750000 0.937500
vt 0.000000 0.000000
vt 0.781250 0.937500
vt 0.812500 0.937500
vt 0.843750 0.937500
vt 0.875000 0.937500
vt 0.906250 0.937500
vt 0.937500 0.937500
vt 0.968750 0.937500
vt 0.031250 0.828866
vt 0.000000 0.000000
vt 0.062500 0.828866
vt 0.000000 0.000000
vt 0.093750 0.828866
vt 0.000000 0.000000
vt 0.000000 0.000000
vt 0.122970 0.828014
vt 0.156250 0.828014
vt 0.187500 0.828014
vt 0.218750 0.828014
vt 0.250000 0.828014
vt 0.000000 0.000000
vt 0.750000 0.828014
vt 0.000000 0.000000
vt 0.781250 0.828014
vt 0.812500 0.828014
vt 0.843750 0.828014
vt 0.000000 0.000000
vt 0.871173 0.828866
vt 0.906250 0.828866
vt 0.000000 0.000000
vt 0.937500 0.828866
vt 0.000000 0.000000
vt 0.968750 0.828866
vt 0.000000 0.000000
vt 0.000000 0.828866
vt 1.000000 0.828866
vt 0.000000 0.000000
vt 0.000000 0.000000
vt 0.122993 0.670558
vt 0.156250 0.671080
vt 0.187500 0.671080
vt 0.218750 0.671080
vt 0.250000 0.671080
vt 0.000000 0.000000
vt 0.750000 0.671080
vt 0.000000 0.000000
vt 0.781250 0.671080
vt 0.812500 0.671080
vt 0.843750 0.671080
vt 0.000000 0.000000
vt 0.871146 0.670558
vt 0.906250 0.670558
vt 0.000000 0.000000
vt 0.937500 0.670558
vt 0.000000 0.000000
vt 0.000000 0.670558
vt 1.000000 0.670558
vt 0.000000 0.000000
vt 0.968750 0.670558
vt 0.000000 0.000000
vt 0.093750 0.670558
vt 0.000000 0.000000
vt 0.062500 0.670557
vt 0.000000 0.000000
vt 0.031250 0.670558
vt 0.000000 0.000000
vt 0.968750 0.562500
vt 0.937500 0.562500
vt 0.906250 0.562500
vt 0.875000 0.562500
vt 0.843750 0.562500
vt 0.812500 0.562500
vt 0.781250 0.562500
vt 0.750000 0.562500
vt 0.000000 0.000000
vt 1.000000 0.562500
vt 0.000000 0.562500
vt 0.250000 0.562500
vt 0.000000 0.000000
vt 0.218750 0.562500
vt 0.187500 0.562500
vt 0.156250 0.562500
vt 0.125000 0.562500
vt 0.093750 0.562500
vt 0.062500 0.562500
vt 0.031250 0.562500
vt 0.868065 0.749995
vt 0.000000 0.000000
vt 0.234375 0.625000
vt 0.012306 0.273411
vt 0.234375 1.000000
vt 0.512306 0.273411
vt 0.234375 0.500000
vt 0.234375 0.750000
vt 0.234375 0.875000
vt 0.234375 0.937500
vt 0.234375 0.828014
vt 0.234375 0.671080
vt 0.234375 0.562500
vt 0.987694 0.273411
vt 0.765625 0.500000
vt 0.487694 0.273411
vt 0.765625 1.000000
vt 0.765625 0.750000
vt 0.765625 0.625000
vt 0.765625 0.875000
vt 0.765625 0.937500
vt 0.765625 0.828014
vt 0.765625 0.671080
vt 0.765625 0.562500
s 0
f 78/128/1 2/4/1 4/9/1 94/146/1
f 94/146/2 4/9/2 6/13/2 93/145/2
f 93/145/3 6/13/3 8/17/3 92/144/3
f 92/144/4 8/17/4 10/21/4 91/143/4
f 91/143/5 10/21/5 12/25/5 90/142/5
f 90/142/6 12/25/6 14/29/6 89/141/6
f 89/141/7 14/29/7 16/34/7 88/140/7
f 161/245/8 157/241/8 18/38/8 87/138/8
f 121/189/9 146/225/9 39/66/9 120/187/9
f 120/187/10 39/66/10 38/65/10 119/186/10
f 119/186/7 38/65/7 37/64/7 118/185/7
f 163/247/8 158/242/8 36/62/8 117/183/8
f 154/236/11 150/232/11 34/59/11 115/180/11
f 115/180/12 34/59/12 33/58/12 114/179/12
f 114/179/13 33/58/13 32/57/13 113/178/13
f 113/178/14 32/57/14 40/67/14 112/177/14
f 152/234/11 148/229/11 44/77/11 85/135/11
f 85/135/15 44/77/15 46/81/15 84/134/15
f 84/134/16 46/81/16 48/85/16 83/133/16
f 83/133/17 48/85/17 50/89/17 82/132/17
f 82/132/18 50/89/18 52/93/18 81/131/18
f 81/131/19 52/93/19 54/98/19 80/130/19
f 4/10/20 2/5/20 56/101/20 54/97/20 52/94/20 50/90/20 48/86/20 46/82/20 44/78/20 148/228/20 42/72/20 18/39/20 157/240/20 16/33/20 14/30/20 12/26/20 10/22/20 8/18/20 6/14/20
f 80/130/21 54/98/21 56/102/21 79/129/21
f 79/129/22 56/102/22 2/6/22 78/127/22
f 1/1/23 3/7/23 5/11/23 7/15/23 9/19/23 11/23/23 13/27/23 15/31/23 156/238/23 17/35/23 41/69/23 149/230/23 43/75/23 45/79/23 47/83/23 49/87/23 51/91/23 53/95/23 55/99/23
f 35/60/11 102/158/11 153/235/11 150/232/11
f 145/224/22 60/106/22 23/46/22 137/215/22
f 116/181/11 35/60/11 150/232/11 154/236/11
f 144/223/21 59/105/21 60/106/21 145/224/21
f 143/222/19 58/104/19 59/105/19 144/223/19
f 142/221/18 57/103/18 58/104/18 143/222/18
f 141/220/17 19/41/17 57/103/17 142/221/17
f 140/219/16 20/42/16 19/41/16 141/220/16
f 139/218/15 21/43/15 20/42/15 140/219/15
f 155/237/11 147/227/11 21/43/11 139/218/11
f 164/248/8 159/243/8 24/48/8 136/212/8
f 134/210/7 26/51/7 25/50/7 135/211/7
f 133/209/6 27/52/6 26/51/6 134/210/6
f 132/208/5 28/53/5 27/52/5 133/209/5
f 131/207/4 29/54/4 28/53/4 132/208/4
f 130/206/3 30/55/3 29/54/3 131/207/3
f 129/205/2 31/56/2 30/55/2 130/206/2
f 137/214/1 23/47/1 31/56/1 129/205/1
f 86/136/11 42/73/11 148/229/11 152/234/11
f 95/147/24 62/109/24 61/107/24 111/173/24
f 96/149/25 63/110/25 62/109/25 95/147/25
f 97/151/26 64/111/26 63/110/26 96/149/26
f 98/154/27 65/112/27 64/111/27 97/151/27
f 99/155/28 66/113/28 98/154/28
f 100/156/29 67/114/29 66/113/29 99/155/29
f 101/157/30 68/115/30 67/114/30 100/156/30
f 153/235/11 151/233/11 68/115/11 101/157/11
f 162/246/8 160/244/8 70/118/8 103/160/8
f 105/163/7 72/121/7 71/120/7 104/162/7
f 106/164/31 73/122/31 72/121/31 105/163/31
f 107/166/32 73/122/32 106/164/32
f 108/167/33 75/124/33 74/123/33 107/166/33
f 109/169/34 76/125/34 75/124/34 108/167/34
f 110/171/35 77/126/35 76/125/35 109/169/35
f 111/174/36 61/108/36 77/126/36 110/171/36
f 138/216/11 22/44/11 147/227/11 155/237/11
f 62/109/22 79/129/22 78/127/22 61/107/22
f 63/110/21 80/130/21 79/129/21 62/109/21
f 64/111/19 81/131/19 80/130/19 63/110/19
f 65/112/18 82/132/18 81/131/18 64/111/18
f 66/113/17 83/133/17 82/132/17 65/112/17
f 67/114/16 84/134/16 83/133/16 66/113/16
f 68/115/15 85/135/15 84/134/15 67/114/15
f 151/233/11 152/234/11 85/135/11 68/115/11
f 160/244/8 161/245/8 87/138/8 70/118/8
f 72/121/7 89/141/7 88/140/7 71/120/7
f 73/122/6 90/142/6 89/141/6 72/121/6
f 74/123/5 91/143/5 90/142/5 73/122/5
f 75/124/4 92/144/4 91/143/4 74/123/4
f 76/125/3 93/145/3 92/144/3 75/124/3
f 77/126/2 94/146/2 93/145/2 76/125/2
f 61/108/1 78/128/1 94/146/1 77/126/1
f 39/66/37 106/164/37 105/163/37 38/65/37
f 38/65/7 105/163/7 104/162/7 37/64/7
f 158/242/8 162/246/8 103/160/8 36/62/8
f 150/232/11 153/235/11 101/157/11 34/59/11
f 34/59/38 101/157/38 100/156/38 33/58/38
f 33/58/39 100/156/39 99/155/39 32/57/39
f 32/57/40 99/155/40 98/154/40 40/67/40
f 15/32/8 135/211/8 164/248/8 156/239/8
f 102/158/11 69/116/11 151/233/11 153/235/11
f 60/106/41 128/203/41 124/194/41 23/46/41
f 59/105/42 127/201/42 128/203/42 60/106/42
f 58/104/43 126/199/43 127/201/43 59/105/43
f 57/103/44 112/177/44 126/199/44 58/104/44
f 19/41/45 112/177/45 57/103/45
f 20/42/46 114/179/46 113/178/46 19/41/46
f 21/43/47 115/180/47 114/179/47 20/42/47
f 147/227/11 154/236/11 115/180/11 21/43/11
f 159/243/8 163/247/8 117/183/8 24/48/8
f 26/51/7 119/186/7 118/185/7 25/50/7
f 27/52/48 120/187/48 119/186/48 26/51/48
f 28/53/49 121/189/49 27/52/49
f 29/54/50 122/190/50 121/189/50 28/53/50
f 30/55/51 123/192/51 122/190/51 29/54/51
f 31/56/52 125/197/52 123/192/52 30/55/52
f 23/47/53 124/195/53 125/197/53 31/56/53
f 1/2/1 137/214/1 129/205/1 3/8/1
f 3/8/2 129/205/2 130/206/2 5/12/2
f 5/12/3 130/206/3 131/207/3 7/16/3
f 7/16/4 131/207/4 132/208/4 9/20/4
f 9/20/5 132/208/5 133/209/5 11/24/5
f 11/24/6 133/209/6 134/210/6 13/28/6
f 13/28/7 134/210/7 135/211/7 15/32/7
f 156/239/8 164/248/8 136/212/8 17/36/8
f 149/231/11 155/237/11 139/218/11 43/76/11
f 43/76/15 139/218/15 140/219/15 45/80/15
f 45/80/16 140/219/16 141/220/16 47/84/16
f 47/84/17 141/220/17 142/221/17 49/88/17
f 49/88/18 142/221/18 143/222/18 51/92/18
f 51/92/19 143/222/19 144/223/19 53/96/19
f 53/96/21 144/223/21 145/224/21 55/100/21
f 55/100/22 145/224/22 137/215/22 1/3/22
f 25/50/8 118/185/8 163/247/8 159/243/8
f 146/225/54 107/166/54 106/164/54 39/66/54
f 122/191/55 108/168/55 107/165/55 146/226/55 121/188/55
f 123/193/56 109/170/56 108/168/56 122/191/56
f 41/70/11 138/216/11 155/237/11 149/231/11
f 110/172/57 123/193/57 125/198/57
f 22/44/11 116/181/11 154/236/11 147/227/11
f 128/204/58 111/175/58 124/196/58
f 69/116/11 86/136/11 152/234/11 151/233/11
f 95/148/59 127/202/59 96/150/59
f 110/172/60 125/198/60 124/196/60
f 111/175/60 110/172/60 124/196/60
f 127/202/59 95/148/59 128/204/59
f 96/150/61 127/202/61 97/152/61
f 127/202/61 126/200/61 97/152/61
f 95/148/58 111/175/58 128/204/58
f 110/172/57 109/170/57 123/193/57
f 97/152/62 126/200/62 112/176/62 40/68/62 98/153/62
f 98/154/63 66/113/63 65/112/63
f 112/177/64 19/41/64 113/178/64
f 73/122/65 107/166/65 74/123/65
f 27/52/66 121/189/66 120/187/66
f 102/159/67 35/61/67 116/182/67 22/45/67 138/217/67 41/71/67 17/37/67 136/213/67 24/49/67 117/184/67 36/63/67 103/161/67 70/119/67 87/139/67 18/40/67 42/74/67 86/137/67 69/117/67
f 37/64/8 104/162/8 162/246/8 158/242/8
f 71/120/8 88/140/8 161/245/8 160/244/8
f 104/162/8 71/120/8 160/244/8 162/246/8
f 135/211/8 25/50/8 159/243/8 164/248/8
f 118/185/8 37/64/8 158/242/8 163/247/8
f 88/140/8 16/34/8 157/241/8 161/245/8
