# Blender 3.4.1
# www.blender.org
mtllib PortalDoor_Wall.mtl
o Cube
v -1.250000 -0.150000 -0.000013
v -1.250000 0.150000 -0.000013
v -1.250000 -0.150000 -3.000013
v -1.250000 0.150000 -3.000013
v 1.250000 -0.150000 -0.000013
v 1.250000 0.150000 -0.000013
v 1.250000 -0.150000 -3.000013
v 1.250000 0.150000 -3.000013
v -0.420952 -0.150000 -2.166267
v 0.000000 -0.150000 -2.250000
v -0.214599 -0.150000 -2.228864
v 0.420952 -0.150000 -2.166267
v 0.777817 -0.150000 -1.927817
v 0.611127 -0.150000 -2.064616
v 0.214599 -0.150000 -2.228864
v 0.914617 -0.150000 -0.538873
v 1.016268 -0.150000 -1.570952
v 1.100000 -0.150000 -1.150000
v 1.078864 -0.150000 -0.935401
v 1.078864 -0.150000 -1.364599
v 1.016268 -0.150000 -0.729048
v 0.914617 -0.150000 -1.761127
v -1.100000 -0.150000 -1.150000
v -1.016268 -0.150000 -0.729048
v -1.078864 -0.150000 -0.935401
v -1.078864 -0.150000 -1.364599
v -0.835957 -0.150000 -0.443026
v -0.777817 -0.150000 -0.372182
v -0.777817 -0.150000 -1.927817
v -0.914617 -0.150000 -0.538873
v -0.914617 -0.150000 -1.761127
v -1.016268 -0.150000 -1.570952
v -0.214599 -0.150000 -0.071136
v -0.420952 -0.150000 -0.133732
v 0.420952 -0.150000 -0.133732
v 0.214599 -0.150000 -0.071136
v 0.856477 -0.150000 -0.468029
v 0.611127 -0.150000 -0.235383
v 0.777817 -0.150000 -0.372182
v 0.000000 -0.150000 -0.050000
v -0.611127 -0.150000 -0.235383
v -0.611127 -0.150000 -2.064616
v -1.100000 0.150000 -1.150000
v -1.078864 0.150000 -0.935401
v -1.078864 0.150000 -1.364599
v -0.914617 0.150000 -0.538873
v -1.016268 0.150000 -1.570952
v -1.016268 0.150000 -0.729048
v -0.914617 0.150000 -1.761127
v -0.777817 0.150000 -1.927817
v -0.420952 0.150000 -2.166267
v -0.611127 0.150000 -2.064616
v 0.000000 0.150000 -2.250000
v 0.420952 0.150000 -2.166267
v 0.214599 0.150000 -2.228864
v -0.214599 0.150000 -2.228864
v -0.856477 0.150000 -0.468029
v -0.777817 0.150000 -0.372182
v -0.420952 0.150000 -0.133732
v -0.214599 0.150000 -0.071136
v -0.611127 0.150000 -0.235383
v 0.214599 0.150000 -0.071136
v 0.000000 0.150000 -0.050000
v 0.420952 0.150000 -0.133732
v 0.777817 0.150000 -0.372182
v 0.835957 0.150000 -0.443026
v 0.914617 0.150000 -1.761127
v 0.914617 0.150000 -0.538873
v 0.777817 0.150000 -1.927817
v 1.100000 0.150000 -1.150000
v 1.078864 0.150000 -1.364599
v 1.016268 0.150000 -0.729048
v 1.078864 0.150000 -0.935401
v 1.016268 0.150000 -1.570952
v 0.611127 0.150000 -0.235383
v 0.611127 0.150000 -2.064616
vn -1.0000 -0.0000 -0.0000
vn -0.0000 -0.0000 -1.0000
vn 1.0000 -0.0000 -0.0000
vn -0.0000 -0.0000 1.0000
vn -0.0000 -1.0000 -0.0000
vn -0.0000 1.0000 -0.0000
vn -0.0980 -0.0000 0.9952
vn -0.2903 -0.0000 0.9569
vn -0.4714 -0.0000 0.8819
vn -0.6344 -0.0000 0.7730
vn -0.7730 -0.0000 0.6344
vn -0.8819 -0.0000 0.4714
vn -0.9569 -0.0000 0.2903
vn -0.9952 -0.0000 0.0980
vn -0.9952 -0.0000 -0.0980
vn -0.9569 -0.0000 -0.2903
vn -0.8819 -0.0000 -0.4714
vn -0.7730 -0.0000 -0.6344
vn -0.6344 -0.0000 -0.7730
vn -0.4714 -0.0000 -0.8819
vn -0.2903 -0.0000 -0.9569
vn -0.0980 -0.0000 -0.9952
vn 0.0980 -0.0000 -0.9952
vn 0.2903 -0.0000 -0.9569
vn 0.4714 -0.0000 -0.8819
vn 0.6344 -0.0000 -0.7730
vn 0.7730 -0.0000 -0.6344
vn 0.8819 -0.0000 -0.4714
vn 0.9569 -0.0000 -0.2903
vn 0.9952 -0.0000 -0.0980
vn 0.9952 -0.0000 0.0980
vn 0.9569 -0.0000 0.2903
vn 0.8819 -0.0000 0.4714
vn 0.7730 -0.0000 0.6344
vn 0.6344 -0.0000 0.7730
vn 0.4714 -0.0000 0.8819
vn 0.2903 -0.0000 0.9569
vn 0.0980 -0.0000 0.9952
vt 0.375000 0.000000
vt 0.375000 1.000000
vt 0.125000 0.750000
vt 0.625000 0.000000
vt 0.625000 1.000000
vt 0.875000 0.750000
vt 0.375000 0.250000
vt 0.125000 0.500000
vt 0.625000 0.250000
vt 0.875000 0.500000
vt 0.375000 0.750000
vt 0.625000 0.750000
vt 0.375000 0.500000
vt 0.625000 0.500000
vt 0.207905 0.569479
vt 0.062500 0.712500
vt 0.250000 0.562501
vt 1.000000 0.712500
vt 0.000000 0.712500
vt 0.228540 0.564262
vt 0.031250 0.712500
vt 0.292095 0.569479
vt 0.937500 0.712500
vt 0.327782 0.589350
vt 0.875000 0.712500
vt 0.311113 0.577950
vt 0.906250 0.712500
vt 0.271460 0.564262
vt 0.968750 0.712500
vt 0.341462 0.705095
vt 0.656250 0.712500
vt 0.351627 0.619088
vt 0.812500 0.712500
vt 0.360000 0.654168
vt 0.750000 0.712500
vt 0.357886 0.672051
vt 0.718750 0.712500
vt 0.357886 0.636284
vt 0.781250 0.712500
vt 0.351627 0.689247
vt 0.687500 0.712500
vt 0.341462 0.603240
vt 0.843750 0.712500
vt 0.140000 0.654168
vt 0.250000 0.712500
vt 0.148373 0.689247
vt 0.312500 0.712500
vt 0.142114 0.672051
vt 0.281250 0.712500
vt 0.142114 0.636284
vt 0.218750 0.712500
vt 0.166404 0.713082
vt 0.361719 0.712500
vt 0.172218 0.718986
vt 0.375000 0.712500
vt 0.172218 0.589350
vt 0.125000 0.712500
vt 0.158538 0.705095
vt 0.343750 0.712500
vt 0.158538 0.603240
vt 0.156250 0.712500
vt 0.148373 0.619088
vt 0.187500 0.712500
vt 0.228540 0.744073
vt 0.468750 0.712500
vt 0.207905 0.738857
vt 0.437500 0.712500
vt 0.292095 0.738857
vt 0.562500 0.712500
vt 0.271460 0.744073
vt 0.531250 0.712500
vt 0.335648 0.710999
vt 0.642969 0.712500
vt 0.311113 0.730386
vt 0.593750 0.712500
vt 0.327782 0.718986
vt 0.625000 0.712500
vt 0.250000 0.745834
vt 0.500000 0.712500
vt 0.188887 0.730386
vt 0.406250 0.712500
vt 0.188887 0.577950
vt 0.093750 0.712500
vt 0.860000 0.654168
vt 0.250000 0.787500
vt 0.857886 0.672051
vt 0.281250 0.787500
vt 0.857886 0.636284
vt 0.218750 0.787500
vt 0.841462 0.705095
vt 0.343750 0.787500
vt 0.851627 0.619088
vt 0.187500 0.787500
vt 0.851627 0.689247
vt 0.312500 0.787500
vt 0.841462 0.603240
vt 0.156250 0.787500
vt 0.827782 0.589350
vt 0.125000 0.787500
vt 0.792095 0.569479
vt 0.062500 0.787500
vt 0.811113 0.577950
vt 0.093750 0.787500
vt 0.750000 0.562501
vt 1.000000 0.787500
vt 0.000000 0.787500
vt 0.707905 0.569479
vt 0.937500 0.787500
vt 0.728540 0.564262
vt 0.968750 0.787500
vt 0.771460 0.564262
vt 0.031250 0.787500
vt 0.835648 0.710999
vt 0.357031 0.787500
vt 0.827782 0.718986
vt 0.375000 0.787500
vt 0.792095 0.738857
vt 0.437500 0.787500
vt 0.771460 0.744073
vt 0.468750 0.787500
vt 0.811113 0.730386
vt 0.406250 0.787500
vt 0.728540 0.744073
vt 0.531250 0.787500
vt 0.750000 0.745834
vt 0.500000 0.787500
vt 0.707905 0.738857
vt 0.562500 0.787500
vt 0.672218 0.718986
vt 0.625000 0.787500
vt 0.666404 0.713082
vt 0.638281 0.787500
vt 0.658538 0.603240
vt 0.843750 0.787500
vt 0.658538 0.705095
vt 0.656250 0.787500
vt 0.672218 0.589350
vt 0.875000 0.787500
vt 0.640000 0.654168
vt 0.750000 0.787500
vt 0.642114 0.636284
vt 0.781250 0.787500
vt 0.648373 0.689247
vt 0.687500 0.787500
vt 0.642114 0.672051
vt 0.718750 0.787500
vt 0.648373 0.619088
vt 0.812500 0.787500
vt 0.688887 0.730386
vt 0.593750 0.787500
vt 0.688887 0.577950
vt 0.906250 0.787500
s 0
f 1/1/1 2/4/1 4/9/1 3/7/1
f 3/7/2 4/9/2 8/14/2 7/13/2
f 7/13/3 8/14/3 6/12/3 5/11/3
f 5/11/4 6/12/4 2/5/4 1/2/4
f 27/52/5 1/3/5 3/8/5 7/13/5 5/11/5 37/72/5 16/30/5 21/40/5 19/36/5 18/34/5 20/38/5 17/32/5 22/42/5 13/24/5 14/26/5 12/22/5 15/28/5 10/17/5 11/20/5 9/15/5 42/82/5 29/56/5 31/60/5 32/62/5 26/50/5 23/44/5 25/48/5 24/46/5 30/58/5
f 5/11/5 1/3/5 27/52/5 28/54/5 41/80/5 34/66/5 33/64/5 40/78/5 36/70/5 35/68/5 38/74/5 39/76/5 37/72/5
f 58/115/6 57/113/6 2/6/6 6/12/6 66/131/6 65/129/6 75/149/6 64/127/6 62/123/6 63/125/6 60/119/6 59/117/6 61/121/6
f 68/135/6 66/131/6 6/12/6 8/14/6 4/10/6 2/6/6 57/113/6 46/90/6 48/94/6 44/86/6 43/84/6 45/88/6 47/92/6 49/96/6 50/98/6 52/102/6 51/100/6 56/111/6 53/104/6 55/109/6 54/107/6 76/151/6 69/137/6 67/133/6 74/147/6 71/141/6 70/139/6 73/145/6 72/143/6
f 53/105/7 10/18/7 15/29/7 55/110/7
f 55/110/8 15/29/8 12/23/8 54/108/8
f 54/108/9 12/23/9 14/27/9 76/152/9
f 76/152/10 14/27/10 13/25/10 69/138/10
f 13/25/11 22/43/11 67/134/11 69/138/11
f 22/43/12 17/33/12 74/148/12 67/134/12
f 17/33/13 20/39/13 71/142/13 74/148/13
f 20/39/14 18/35/14 70/140/14 71/142/14
f 18/35/15 19/37/15 73/146/15 70/140/15
f 19/37/16 21/41/16 72/144/16 73/146/16
f 21/41/17 16/31/17 68/136/17 72/144/17
f 16/31/18 37/73/18 39/77/18 65/130/18 66/132/18 68/136/18
f 39/77/19 38/75/19 75/150/19 65/130/19
f 38/75/20 35/69/20 64/128/20 75/150/20
f 35/69/21 36/71/21 62/124/21 64/128/21
f 36/71/22 40/79/22 63/126/22 62/124/22
f 40/79/23 33/65/23 60/120/23 63/126/23
f 33/65/24 34/67/24 59/118/24 60/120/24
f 34/67/25 41/81/25 61/122/25 59/118/25
f 41/81/26 28/55/26 58/116/26 61/122/26
f 58/116/27 28/55/27 27/53/27 30/59/27 46/91/27 57/114/27
f 46/91/28 30/59/28 24/47/28 48/95/28
f 48/95/29 24/47/29 25/49/29 44/87/29
f 44/87/30 25/49/30 23/45/30 43/85/30
f 43/85/31 23/45/31 26/51/31 45/89/31
f 45/89/32 26/51/32 32/63/32 47/93/32
f 47/93/33 32/63/33 31/61/33 49/97/33
f 49/97/34 31/61/34 29/57/34 50/99/34
f 50/99/35 29/57/35 42/83/35 52/103/35
f 52/103/36 42/83/36 9/16/36 51/101/36
f 51/101/37 9/16/37 11/21/37 56/112/37
f 56/112/38 11/21/38 10/19/38 53/106/38
