# Blender 3.4.1
# www.blender.org
mtllib PortalDoor_Frame.mtl
o Cylinder
v 0.000000 -0.200000 -2.250000
v 0.000000 0.200000 -2.250000
v 0.214599 -0.200000 -2.228864
v 0.214599 0.200000 -2.228864
v 0.420952 -0.200000 -2.166267
v 0.420952 0.200000 -2.166267
v 0.611127 -0.200000 -2.064616
v 0.611127 0.200000 -2.064616
v 0.777817 -0.200000 -1.927817
v 0.777817 0.200000 -1.927817
v 0.914617 -0.200000 -1.761127
v 0.914617 0.200000 -1.761127
v 1.016267 -0.200000 -1.570952
v 1.016267 0.200000 -1.570952
v 1.078864 -0.200000 -1.364599
v 1.078864 0.200000 -1.364599
v 1.100000 -0.200000 -1.150000
v 1.100000 0.200000 -1.150000
v 1.078864 -0.200000 -0.935400
v 1.078864 0.200000 -0.935400
v 1.016267 -0.200000 -0.729048
v 1.016267 0.200000 -0.729048
v 0.914617 -0.200000 -0.538873
v 0.914617 0.200000 -0.538873
v 0.777817 -0.200000 -0.372182
v 0.777817 0.200000 -0.372182
v 0.611127 -0.200000 -0.235383
v 0.611127 0.200000 -0.235383
v 0.420952 -0.200000 -0.133732
v 0.420952 0.200000 -0.133732
v 0.214599 -0.200000 -0.071136
v 0.214599 0.200000 -0.071136
v 0.000000 -0.200000 -0.050000
v 0.000000 0.200000 -0.050000
v -0.214599 -0.200000 -0.071136
v -0.214599 0.200000 -0.071136
v -0.420952 -0.200000 -0.133732
v -0.420952 0.200000 -0.133732
v -0.611127 -0.200000 -0.235383
v -0.611127 0.200000 -0.235383
v -0.777817 -0.200000 -0.372182
v -0.777817 0.200000 -0.372182
v -0.914617 -0.200000 -0.538873
v -0.914617 0.200000 -0.538873
v -1.016267 -0.200000 -0.729048
v -1.016267 0.200000 -0.729048
v -1.078864 -0.200000 -0.935400
v -1.078864 0.200000 -0.935400
v -1.100000 -0.200000 -1.150000
v -1.100000 0.200000 -1.150000
v -1.078864 -0.200000 -1.364599
v -1.078864 0.200000 -1.364599
v -1.016267 -0.200000 -1.570952
v -1.016267 0.200000 -1.570952
v -0.914617 -0.200000 -1.761127
v -0.914617 0.200000 -1.761127
v -0.777817 -0.200000 -1.927817
v -0.777817 0.200000 -1.927817
v -0.611127 -0.200000 -2.064616
v -0.611127 0.200000 -2.064616
v -0.420952 -0.200000 -2.166267
v -0.420952 0.200000 -2.166267
v -0.214599 -0.200000 -2.228864
v -0.214599 0.200000 -2.228864
v -0.831470 0.200000 -1.705570
v -0.555570 0.200000 -1.981470
v -0.707107 0.200000 -1.857107
v -0.195090 0.200000 -2.130785
v -0.382683 0.200000 -2.073879
v 0.195090 0.200000 -2.130785
v 0.000000 0.200000 -2.150000
v -1.000000 0.200000 -1.150000
v -0.980785 0.200000 -1.345090
v -0.980785 0.200000 -0.954910
v -0.831470 0.200000 -0.594430
v -0.555570 0.200000 -0.318530
v -0.707107 0.200000 -0.442893
v -0.923880 0.200000 -0.767316
v -0.195090 0.200000 -0.169215
v 0.195090 0.200000 -0.169215
v 0.000000 0.200000 -0.150000
v 0.707107 0.200000 -0.442893
v 0.555570 0.200000 -0.318530
v 0.831470 0.200000 -0.594430
v 0.382683 0.200000 -0.226120
v 0.555570 0.200000 -1.981470
v 0.831470 0.200000 -1.705570
v 0.707107 0.200000 -1.857107
v 1.000000 0.200000 -1.150000
v 0.980785 0.200000 -0.954910
v 0.980785 0.200000 -1.345090
v 0.923880 0.200000 -1.532683
v -0.923880 0.200000 -1.532683
v -0.382683 0.200000 -0.226120
v 0.923880 0.200000 -0.767316
v 0.382683 0.200000 -2.073879
v 0.000000 -0.200000 -2.150000
v 0.382683 -0.200000 -2.073879
v 0.195090 -0.200000 -2.130785
v 0.707107 -0.200000 -1.857107
v 0.831470 -0.200000 -1.705570
v 0.923880 -0.200000 -1.532683
v 0.555570 -0.200000 -1.981470
v 0.382683 -0.200000 -0.226120
v 0.707107 -0.200000 -0.442893
v 0.555570 -0.200000 -0.318530
v 0.923880 -0.200000 -0.767316
v 0.831470 -0.200000 -0.594430
v 1.000000 -0.200000 -1.150000
v 0.980785 -0.200000 -0.954910
v -0.923880 -0.200000 -0.767316
v -0.707107 -0.200000 -0.442893
v -0.831470 -0.200000 -0.594430
v -0.382683 -0.200000 -0.226120
v -0.555570 -0.200000 -0.318530
v 0.000000 -0.200000 -0.150000
v -0.195090 -0.200000 -0.169215
v -1.000000 -0.200000 -1.150000
v -0.923880 -0.200000 -1.532683
v -0.980785 -0.200000 -1.345090
v -0.707107 -0.200000 -1.857107
v -0.382683 -0.200000 -2.073879
v -0.555570 -0.200000 -1.981470
v -0.831470 -0.200000 -1.705570
v 0.980785 -0.200000 -1.345090
v 0.195090 -0.200000 -0.169215
v -0.980785 -0.200000 -0.954910
v -0.195090 -0.200000 -2.130785
vn 0.0980 -0.0000 -0.9952
vn 0.2903 -0.0000 -0.9569
vn 0.4714 -0.0000 -0.8819
vn 0.6344 -0.0000 -0.7730
vn 0.7730 -0.0000 -0.6344
vn 0.8819 -0.0000 -0.4714
vn 0.9569 -0.0000 -0.2903
vn 0.9952 -0.0000 -0.0980
vn 0.9952 -0.0000 0.0980
vn 0.9569 -0.0000 0.2903
vn 0.8819 -0.0000 0.4714
vn 0.7730 -0.0000 0.6344
vn 0.6344 -0.0000 0.7730
vn 0.4714 -0.0000 0.8819
vn 0.2903 -0.0000 0.9569
vn 0.0980 -0.0000 0.9952
vn -0.0980 -0.0000 0.9952
vn -0.2903 -0.0000 0.9569
vn -0.4714 -0.0000 0.8819
vn -0.6344 -0.0000 0.7730
vn -0.7730 -0.0000 0.6344
vn -0.8819 -0.0000 0.4714
vn -0.9569 -0.0000 0.2903
vn -0.9952 -0.0000 0.0980
vn -0.9952 -0.0000 -0.0980
vn -0.9569 -0.0000 -0.2903
vn -0.8819 -0.0000 -0.4714
vn -0.7730 -0.0000 -0.6344
vn -0.6344 -0.0000 -0.7730
vn -0.4714 -0.0000 -0.8819
vn -0.0000 1.0000 -0.0000
vn -0.2903 -0.0000 -0.9569
vn -0.0980 -0.0000 -0.9952
vn -0.0000 -1.0000 -0.0000
vt 1.000000 0.500000
vt 0.000000 0.500000
vt 0.750000 0.490000
vt 1.000000 1.000000
vt 0.250000 0.490000
vt 0.000000 1.000000
vt 0.968750 0.500000
vt 0.796822 0.485388
vt 0.968750 1.000000
vt 0.296822 0.485388
vt 0.937500 0.500000
vt 0.841844 0.471731
vt 0.937500 1.000000
vt 0.341844 0.471731
vt 0.906250 0.500000
vt 0.883337 0.449553
vt 0.906250 1.000000
vt 0.383337 0.449553
vt 0.875000 0.500000
vt 0.919706 0.419706
vt 0.875000 1.000000
vt 0.419706 0.419706
vt 0.843750 0.500000
vt 0.949553 0.383337
vt 0.843750 1.000000
vt 0.449553 0.383337
vt 0.812500 0.500000
vt 0.971731 0.341844
vt 0.812500 1.000000
vt 0.471731 0.341844
vt 0.781250 0.500000
vt 0.985388 0.296822
vt 0.781250 1.000000
vt 0.485388 0.296822
vt 0.750000 0.500000
vt 0.990000 0.250000
vt 0.750000 1.000000
vt 0.490000 0.250000
vt 0.718750 0.500000
vt 0.985388 0.203178
vt 0.718750 1.000000
vt 0.485388 0.203178
vt 0.687500 0.500000
vt 0.971731 0.158156
vt 0.687500 1.000000
vt 0.471731 0.158156
vt 0.656250 0.500000
vt 0.949553 0.116663
vt 0.656250 1.000000
vt 0.449553 0.116663
vt 0.625000 0.500000
vt 0.919706 0.080294
vt 0.625000 1.000000
vt 0.419706 0.080294
vt 0.593750 0.500000
vt 0.883337 0.050447
vt 0.593750 1.000000
vt 0.383337 0.050447
vt 0.562500 0.500000
vt 0.841844 0.028269
vt 0.562500 1.000000
vt 0.341844 0.028269
vt 0.531250 0.500000
vt 0.796822 0.014612
vt 0.531250 1.000000
vt 0.296822 0.014612
vt 0.500000 0.500000
vt 0.750000 0.010000
vt 0.500000 1.000000
vt 0.250000 0.010000
vt 0.468750 0.500000
vt 0.703178 0.014612
vt 0.468750 1.000000
vt 0.203178 0.014612
vt 0.437500 0.500000
vt 0.658156 0.028269
vt 0.437500 1.000000
vt 0.158156 0.028269
vt 0.406250 0.500000
vt 0.616663 0.050447
vt 0.406250 1.000000
vt 0.116663 0.050447
vt 0.375000 0.500000
vt 0.580294 0.080294
vt 0.375000 1.000000
vt 0.080294 0.080294
vt 0.343750 0.500000
vt 0.550447 0.116663
vt 0.343750 1.000000
vt 0.050447 0.116663
vt 0.312500 0.500000
vt 0.528269 0.158156
vt 0.312500 1.000000
vt 0.028269 0.158156
vt 0.281250 0.500000
vt 0.514612 0.203178
vt 0.281250 1.000000
vt 0.014612 0.203178
vt 0.250000 0.500000
vt 0.510000 0.250000
vt 0.250000 1.000000
vt 0.010000 0.250000
vt 0.218750 0.500000
vt 0.514612 0.296822
vt 0.218750 1.000000
vt 0.014612 0.296822
vt 0.187500 0.500000
vt 0.528269 0.341844
vt 0.187500 1.000000
vt 0.028269 0.341844
vt 0.156250 0.500000
vt 0.550447 0.383337
vt 0.156250 1.000000
vt 0.050447 0.383337
vt 0.125000 0.500000
vt 0.580294 0.419706
vt 0.125000 1.000000
vt 0.080294 0.419706
vt 0.093750 0.500000
vt 0.616663 0.449553
vt 0.093750 1.000000
vt 0.116663 0.449553
vt 0.062500 0.500000
vt 0.658156 0.471731
vt 0.158156 0.471731
vt 0.062500 1.000000
vt 0.031250 0.500000
vt 0.703178 0.485388
vt 0.203178 0.485388
vt 0.031250 1.000000
vt 0.068588 0.371215
vt 0.156250 0.800000
vt 0.128785 0.431412
vt 0.093750 0.800000
vt 0.095722 0.404278
vt 0.125000 0.800000
vt 0.207435 0.463989
vt 0.031250 0.800000
vt 0.166505 0.451574
vt 0.062500 0.800000
vt 0.292565 0.463989
vt 0.968750 0.800000
vt 0.250000 0.468182
vt 1.000000 0.800000
vt 0.000000 0.800000
vt 0.031818 0.250000
vt 0.250000 0.800000
vt 0.036010 0.292565
vt 0.218750 0.800000
vt 0.036010 0.207435
vt 0.281250 0.800000
vt 0.068588 0.128785
vt 0.343750 0.800000
vt 0.128785 0.068588
vt 0.406250 0.800000
vt 0.095722 0.095722
vt 0.375000 0.800000
vt 0.048426 0.166505
vt 0.312500 0.800000
vt 0.207435 0.036010
vt 0.468750 0.800000
vt 0.292565 0.036010
vt 0.531250 0.800000
vt 0.250000 0.031818
vt 0.500000 0.800000
vt 0.404278 0.095722
vt 0.625000 0.800000
vt 0.371215 0.068588
vt 0.593750 0.800000
vt 0.431412 0.128785
vt 0.656250 0.800000
vt 0.333495 0.048426
vt 0.562500 0.800000
vt 0.371215 0.431412
vt 0.906250 0.800000
vt 0.431412 0.371215
vt 0.843750 0.800000
vt 0.404278 0.404278
vt 0.875000 0.800000
vt 0.468182 0.250000
vt 0.750000 0.800000
vt 0.463989 0.207435
vt 0.718750 0.800000
vt 0.463990 0.292565
vt 0.781250 0.800000
vt 0.451574 0.333495
vt 0.812500 0.800000
vt 0.048426 0.333494
vt 0.187500 0.800000
vt 0.166505 0.048426
vt 0.437500 0.800000
vt 0.451574 0.166505
vt 0.687500 0.800000
vt 0.333494 0.451574
vt 0.937500 0.800000
vt 0.750000 0.468182
vt 1.000000 0.700000
vt 0.000000 0.700000
vt 0.833494 0.451574
vt 0.937500 0.700000
vt 0.792565 0.463989
vt 0.968750 0.700000
vt 0.904278 0.404278
vt 0.875000 0.700000
vt 0.931411 0.371215
vt 0.843750 0.700000
vt 0.951573 0.333495
vt 0.812500 0.700000
vt 0.871215 0.431412
vt 0.906250 0.700000
vt 0.833495 0.048426
vt 0.562500 0.700000
vt 0.904278 0.095722
vt 0.625000 0.700000
vt 0.871215 0.068588
vt 0.593750 0.700000
vt 0.951573 0.166505
vt 0.687500 0.700000
vt 0.931411 0.128785
vt 0.656250 0.700000
vt 0.968182 0.250000
vt 0.750000 0.700000
vt 0.963989 0.207435
vt 0.718750 0.700000
vt 0.548426 0.166505
vt 0.312500 0.700000
vt 0.595722 0.095722
vt 0.375000 0.700000
vt 0.568588 0.128785
vt 0.343750 0.700000
vt 0.666505 0.048426
vt 0.437500 0.700000
vt 0.628784 0.068588
vt 0.406250 0.700000
vt 0.750000 0.031818
vt 0.500000 0.700000
vt 0.707435 0.036010
vt 0.468750 0.700000
vt 0.531818 0.250000
vt 0.250000 0.700000
vt 0.548426 0.333495
vt 0.187500 0.700000
vt 0.536010 0.292565
vt 0.218750 0.700000
vt 0.595722 0.404278
vt 0.125000 0.700000
vt 0.666505 0.451574
vt 0.062500 0.700000
vt 0.628785 0.431412
vt 0.093750 0.700000
vt 0.568588 0.371215
vt 0.156250 0.700000
vt 0.963989 0.292565
vt 0.781250 0.700000
vt 0.792565 0.036010
vt 0.531250 0.700000
vt 0.536010 0.207435
vt 0.281250 0.700000
vt 0.707435 0.463989
vt 0.031250 0.700000
s 0
f 1/1/1 2/4/1 4/9/1 3/7/1
f 3/7/2 4/9/2 6/13/2 5/11/2
f 5/11/3 6/13/3 8/17/3 7/15/3
f 7/15/4 8/17/4 10/21/4 9/19/4
f 9/19/5 10/21/5 12/25/5 11/23/5
f 11/23/6 12/25/6 14/29/6 13/27/6
f 13/27/7 14/29/7 16/33/7 15/31/7
f 15/31/8 16/33/8 18/37/8 17/35/8
f 17/35/9 18/37/9 20/41/9 19/39/9
f 19/39/10 20/41/10 22/45/10 21/43/10
f 21/43/11 22/45/11 24/49/11 23/47/11
f 23/47/12 24/49/12 26/53/12 25/51/12
f 25/51/13 26/53/13 28/57/13 27/55/13
f 27/55/14 28/57/14 30/61/14 29/59/14
f 29/59/15 30/61/15 32/65/15 31/63/15
f 31/63/16 32/65/16 34/69/16 33/67/16
f 33/67/17 34/69/17 36/73/17 35/71/17
f 35/71/18 36/73/18 38/77/18 37/75/18
f 37/75/19 38/77/19 40/81/19 39/79/19
f 39/79/20 40/81/20 42/85/20 41/83/20
f 41/83/21 42/85/21 44/89/21 43/87/21
f 43/87/22 44/89/22 46/93/22 45/91/22
f 45/91/23 46/93/23 48/97/23 47/95/23
f 47/95/24 48/97/24 50/101/24 49/99/24
f 49/99/25 50/101/25 52/105/25 51/103/25
f 51/103/26 52/105/26 54/109/26 53/107/26
f 53/107/27 54/109/27 56/113/27 55/111/27
f 55/111/28 56/113/28 58/117/28 57/115/28
f 57/115/29 58/117/29 60/121/29 59/119/29
f 59/119/30 60/121/30 62/126/30 61/123/30
f 95/192/31 22/46/31 20/42/31 18/38/31 16/34/31 14/30/31 12/26/31 10/22/31 8/18/31 6/14/31 96/194/31 86/174/31 88/178/31 87/176/31 92/186/31 91/184/31 89/180/31 90/182/31
f 96/194/31 6/14/31 4/10/31 2/5/31 64/129/31 62/125/31 60/122/31 58/118/31 56/114/31 54/110/31 52/106/31 50/102/31 48/98/31 46/94/31 44/90/31 42/86/31 40/82/31 38/78/31 36/74/31 34/70/31 32/66/31 30/62/31 28/58/31 26/54/31 24/50/31 22/46/31 95/192/31 84/170/31 82/166/31 83/168/31 85/172/31 80/162/31 81/164/31 79/160/31 94/190/31 76/154/31 77/156/31 75/152/31 78/158/31 74/150/31 72/146/31 73/148/31 93/188/31 65/131/31 67/135/31 66/133/31 69/139/31 68/137/31 71/143/31 70/141/31
f 61/123/32 62/126/32 64/130/32 63/127/32
f 63/127/33 64/130/33 2/6/33 1/2/33
f 23/48/34 25/52/34 27/56/34 29/60/34 31/64/34 33/68/34 35/72/34 37/76/34 39/80/34 41/84/34 43/88/34 45/92/34 47/96/34 49/100/34 51/104/34 53/108/34 55/112/34 124/251/34 119/241/34 120/243/34 118/239/34 127/257/34 111/225/34 113/229/34 112/227/34 115/233/34 114/231/34 117/237/34 116/235/34 126/255/34 104/211/34 106/215/34 105/213/34 108/219/34
f 124/251/34 55/112/34 57/116/34 59/120/34 61/124/34 63/128/34 1/3/34 3/8/34 5/12/34 7/16/34 9/20/34 11/24/34 13/28/34 15/32/34 17/36/34 19/40/34 21/44/34 23/48/34 108/219/34 107/217/34 110/223/34 109/221/34 125/253/34 102/207/34 101/205/34 100/203/34 103/209/34 98/199/34 99/201/34 97/196/34 128/259/34 122/247/34 123/249/34 121/245/34
f 99/202/17 70/142/17 71/144/17 97/197/17
f 98/200/18 96/195/18 70/142/18 99/202/18
f 103/210/19 86/175/19 96/195/19 98/200/19
f 100/204/20 88/179/20 86/175/20 103/210/20
f 87/177/21 88/179/21 100/204/21 101/206/21
f 92/187/22 87/177/22 101/206/22 102/208/22
f 91/185/23 92/187/23 102/208/23 125/254/23
f 89/181/24 91/185/24 125/254/24 109/222/24
f 90/183/25 89/181/25 109/222/25 110/224/25
f 95/193/26 90/183/26 110/224/26 107/218/26
f 84/171/27 95/193/27 107/218/27 108/220/27
f 82/167/28 84/171/28 108/220/28 105/214/28
f 83/169/29 82/167/29 105/214/29 106/216/29
f 85/173/30 83/169/30 106/216/30 104/212/30
f 80/163/32 85/173/32 104/212/32 126/256/32
f 81/165/33 80/163/33 126/256/33 116/236/33
f 79/161/1 81/165/1 116/236/1 117/238/1
f 94/191/2 79/161/2 117/238/2 114/232/2
f 76/155/3 94/191/3 114/232/3 115/234/3
f 77/157/4 76/155/4 115/234/4 112/228/4
f 113/230/5 75/153/5 77/157/5 112/228/5
f 111/226/6 78/159/6 75/153/6 113/230/6
f 127/258/7 74/151/7 78/159/7 111/226/7
f 118/240/8 72/147/8 74/151/8 127/258/8
f 120/244/9 73/149/9 72/147/9 118/240/9
f 119/242/10 93/189/10 73/149/10 120/244/10
f 124/252/11 65/132/11 93/189/11 119/242/11
f 121/246/12 67/136/12 65/132/12 124/252/12
f 123/250/13 66/134/13 67/136/13 121/246/13
f 122/248/14 69/140/14 66/134/14 123/250/14
f 128/260/15 68/138/15 69/140/15 122/248/15
f 97/198/16 71/145/16 68/138/16 128/260/16
